<svg version="1.1" xmlns="http://www.w3.org/2000/svg" xmlns:xlink="http://www.w3.org/1999/xlink" width="974" height="616"><defs><clipPath id="rbyopXfpsGyd"><path fill="none" stroke="none" d=" M 0 0 L 974 0 L 974 616 L 0 616 L 0 0 Z"/></clipPath></defs><g transform="scale(1,1)" clip-path="url(#rbyopXfpsGyd)"><g><rect fill="rgb(255,255,255)" stroke="none" x="0" y="0" width="974" height="616" fill-opacity="1"/><path fill="none" stroke="rgb(0,0,0)" paint-order="fill stroke markers" d=" M 265.3142894408287 597.5798409615693 L 333.84938478659524 478.8735737211244" stroke-opacity="0.8" stroke-linecap="round" stroke-linejoin="round" stroke-miterlimit="10" stroke-width="2"/><path fill="none" stroke="rgb(0,0,0)" paint-order="fill stroke markers" d=" M 402.3844801323618 597.5798409615693 L 265.3142894408287 597.5798409615693" stroke-opacity="0.8" stroke-linecap="round" stroke-linejoin="round" stroke-miterlimit="10" stroke-width="2"/><path fill="none" stroke="rgb(0,0,0)" paint-order="fill stroke markers" d=" M 402.3844801323618 597.5798409615693 L 333.84938478659524 478.8735737211244" stroke-opacity="0.8" stroke-linecap="round" stroke-linejoin="round" stroke-miterlimit="10" stroke-width="2"/><path fill="none" stroke="rgb(0,0,0)" paint-order="fill stroke markers" d=" M 265.3142894408287 597.5798409615693 L 196.77919409506217 478.8735737211244" stroke-opacity="0.8" stroke-linecap="round" stroke-linejoin="round" stroke-miterlimit="10" stroke-width="2"/><path fill="none" stroke="rgb(0,0,0)" paint-order="fill stroke markers" d=" M 333.84938478659524 478.8735737211244 L 196.77919409506217 478.8735737211244" stroke-opacity="0.8" stroke-linecap="round" stroke-linejoin="round" stroke-miterlimit="10" stroke-width="2"/><path fill="none" stroke="rgb(0,0,0)" paint-order="fill stroke markers" d=" M 196.77919409506217 478.8735737211244 L 196.77919409506217 341.8033830295913" stroke-opacity="0.8" stroke-linecap="round" stroke-linejoin="round" stroke-miterlimit="10" stroke-width="2"/><path fill="none" stroke="rgb(0,0,0)" paint-order="fill stroke markers" d=" M 333.84938478659524 478.8735737211244 L 333.8493847865953 341.8033830295913" stroke-opacity="0.8" stroke-linecap="round" stroke-linejoin="round" stroke-miterlimit="10" stroke-width="2"/><path fill="none" stroke="rgb(0,0,0)" paint-order="fill stroke markers" d=" M 333.8493847865953 341.8033830295913 L 196.77919409506217 341.8033830295913" stroke-opacity="0.8" stroke-linecap="round" stroke-linejoin="round" stroke-miterlimit="10" stroke-width="2"/><path fill="none" stroke="rgb(0,0,0)" paint-order="fill stroke markers" d=" M 333.84938478659524 478.8735737211244 L 452.5556520270402 410.33847837535785" stroke-opacity="0.8" stroke-linecap="round" stroke-linejoin="round" stroke-miterlimit="10" stroke-width="2"/><path fill="none" stroke="rgb(0,0,0)" paint-order="fill stroke markers" d=" M 452.5556520270402 410.33847837535785 L 521.0907473728067 529.0447456158028" stroke-opacity="0.8" stroke-linecap="round" stroke-linejoin="round" stroke-miterlimit="10" stroke-width="2"/><path fill="none" stroke="rgb(0,0,0)" paint-order="fill stroke markers" d=" M 521.0907473728067 529.0447456158028 L 402.3844801323618 597.5798409615693" stroke-opacity="0.8" stroke-linecap="round" stroke-linejoin="round" stroke-miterlimit="10" stroke-width="2"/><path fill="none" stroke="rgb(0,0,0)" paint-order="fill stroke markers" d=" M 333.8493847865953 341.8033830295913 L 452.5556520270402 410.33847837535785" stroke-opacity="0.8" stroke-linecap="round" stroke-linejoin="round" stroke-miterlimit="10" stroke-width="2"/><path fill="none" stroke="rgb(0,0,0)" paint-order="fill stroke markers" d=" M 452.5556520270402 410.33847837535785 L 452.5556520270402 273.26828768382484" stroke-opacity="0.8" stroke-linecap="round" stroke-linejoin="round" stroke-miterlimit="10" stroke-width="2"/><path fill="none" stroke="rgb(0,0,0)" paint-order="fill stroke markers" d=" M 452.5556520270402 273.26828768382484 L 333.8493847865953 341.8033830295913" stroke-opacity="0.8" stroke-linecap="round" stroke-linejoin="round" stroke-miterlimit="10" stroke-width="2"/><path fill="none" stroke="rgb(0,0,0)" paint-order="fill stroke markers" d=" M 452.5556520270402 273.26828768382484 L 589.6258427185733 273.26828768382484" stroke-opacity="0.8" stroke-linecap="round" stroke-linejoin="round" stroke-miterlimit="10" stroke-width="2"/><path fill="none" stroke="rgb(0,0,0)" paint-order="fill stroke markers" d=" M 589.6258427185733 273.26828768382484 L 589.6258427185733 410.33847837535785" stroke-opacity="0.8" stroke-linecap="round" stroke-linejoin="round" stroke-miterlimit="10" stroke-width="2"/><path fill="none" stroke="rgb(0,0,0)" paint-order="fill stroke markers" d=" M 589.6258427185733 410.33847837535785 L 452.5556520270402 410.33847837535785" stroke-opacity="0.8" stroke-linecap="round" stroke-linejoin="round" stroke-miterlimit="10" stroke-width="2"/><path fill="none" stroke="rgb(0,0,0)" paint-order="fill stroke markers" d=" M 589.6258427185733 410.33847837535785 L 521.0907473728067 529.0447456158028" stroke-opacity="0.8" stroke-linecap="round" stroke-linejoin="round" stroke-miterlimit="10" stroke-width="2"/><path fill="none" stroke="rgb(0,0,0)" paint-order="fill stroke markers" d=" M 589.6258427185733 410.33847837535785 L 708.3321099590182 478.87357372112444" stroke-opacity="0.8" stroke-linecap="round" stroke-linejoin="round" stroke-miterlimit="10" stroke-width="2"/><path fill="none" stroke="rgb(0,0,0)" paint-order="fill stroke markers" d=" M 708.3321099590182 478.87357372112444 L 639.7970146132517 597.5798409615693" stroke-opacity="0.8" stroke-linecap="round" stroke-linejoin="round" stroke-miterlimit="10" stroke-width="2"/><path fill="none" stroke="rgb(0,0,0)" paint-order="fill stroke markers" d=" M 639.7970146132517 597.5798409615693 L 521.0907473728067 529.0447456158028" stroke-opacity="0.8" stroke-linecap="round" stroke-linejoin="round" stroke-miterlimit="10" stroke-width="2"/><path fill="none" stroke="rgb(0,0,0)" paint-order="fill stroke markers" d=" M 639.7970146132517 597.5798409615693 L 776.8672053047848 597.5798409615693" stroke-opacity="0.8" stroke-linecap="round" stroke-linejoin="round" stroke-miterlimit="10" stroke-width="2"/><path fill="none" stroke="rgb(0,0,0)" paint-order="fill stroke markers" d=" M 776.8672053047848 597.5798409615693 L 708.3321099590182 478.87357372112444" stroke-opacity="0.8" stroke-linecap="round" stroke-linejoin="round" stroke-miterlimit="10" stroke-width="2"/><path fill="none" stroke="rgb(0,0,0)" paint-order="fill stroke markers" d=" M 708.3321099590182 478.87357372112444 L 708.3321099590182 341.8033830295913" stroke-opacity="0.8" stroke-linecap="round" stroke-linejoin="round" stroke-miterlimit="10" stroke-width="2"/><path fill="none" stroke="rgb(0,0,0)" paint-order="fill stroke markers" d=" M 708.3321099590182 341.8033830295913 L 589.6258427185733 410.33847837535785" stroke-opacity="0.8" stroke-linecap="round" stroke-linejoin="round" stroke-miterlimit="10" stroke-width="2"/><path fill="none" stroke="rgb(0,0,0)" paint-order="fill stroke markers" d=" M 708.3321099590182 341.8033830295913 L 589.6258427185733 273.26828768382484" stroke-opacity="0.8" stroke-linecap="round" stroke-linejoin="round" stroke-miterlimit="10" stroke-width="2"/><path fill="none" stroke="rgb(0,0,0)" paint-order="fill stroke markers" d=" M 708.3321099590182 341.8033830295913 L 708.3321099590182 204.73319233805825" stroke-opacity="0.8" stroke-linecap="round" stroke-linejoin="round" stroke-miterlimit="10" stroke-width="2"/><path fill="none" stroke="rgb(0,0,0)" paint-order="fill stroke markers" d=" M 708.3321099590182 204.73319233805825 L 776.8672053047848 86.02692509761332" stroke-opacity="0.8" stroke-linecap="round" stroke-linejoin="round" stroke-miterlimit="10" stroke-width="2"/><path fill="none" stroke="rgb(0,0,0)" paint-order="fill stroke markers" d=" M 776.8672053047848 86.02692509761332 L 639.7970146132517 86.02692509761332" stroke-opacity="0.8" stroke-linecap="round" stroke-linejoin="round" stroke-miterlimit="10" stroke-width="2"/><path fill="none" stroke="rgb(0,0,0)" paint-order="fill stroke markers" d=" M 639.7970146132517 86.02692509761332 L 521.0907473728067 17.491829751846808" stroke-opacity="0.8" stroke-linecap="round" stroke-linejoin="round" stroke-miterlimit="10" stroke-width="2"/><path fill="none" stroke="rgb(0,0,0)" paint-order="fill stroke markers" d=" M 521.0907473728067 17.491829751846808 L 521.0907473728067 154.56202044337988" stroke-opacity="0.8" stroke-linecap="round" stroke-linejoin="round" stroke-miterlimit="10" stroke-width="2"/><path fill="none" stroke="rgb(0,0,0)" paint-order="fill stroke markers" d=" M 521.0907473728067 154.56202044337988 L 452.5556520270402 273.26828768382484" stroke-opacity="0.8" stroke-linecap="round" stroke-linejoin="round" stroke-miterlimit="10" stroke-width="2"/><path fill="none" stroke="rgb(0,0,0)" paint-order="fill stroke markers" d=" M 521.0907473728067 154.56202044337988 L 589.6258427185733 273.26828768382484" stroke-opacity="0.8" stroke-linecap="round" stroke-linejoin="round" stroke-miterlimit="10" stroke-width="2"/><path fill="none" stroke="rgb(0,0,0)" paint-order="fill stroke markers" d=" M 589.6258427185733 273.26828768382484 L 708.3321099590182 204.73319233805825" stroke-opacity="0.8" stroke-linecap="round" stroke-linejoin="round" stroke-miterlimit="10" stroke-width="2"/><path fill="none" stroke="rgb(0,0,0)" paint-order="fill stroke markers" d=" M 708.3321099590182 204.73319233805825 L 639.7970146132517 86.02692509761332" stroke-opacity="0.8" stroke-linecap="round" stroke-linejoin="round" stroke-miterlimit="10" stroke-width="2"/><path fill="none" stroke="rgb(0,0,0)" paint-order="fill stroke markers" d=" M 639.7970146132517 86.02692509761332 L 521.0907473728067 154.56202044337988" stroke-opacity="0.8" stroke-linecap="round" stroke-linejoin="round" stroke-miterlimit="10" stroke-width="2"/><path fill="none" stroke="rgb(0,0,0)" paint-order="fill stroke markers" d=" M 521.0907473728067 17.491829751846808 L 402.3844801323618 86.02692509761332" stroke-opacity="0.8" stroke-linecap="round" stroke-linejoin="round" stroke-miterlimit="10" stroke-width="2"/><path fill="none" stroke="rgb(0,0,0)" paint-order="fill stroke markers" d=" M 402.3844801323618 86.02692509761332 L 265.3142894408287 86.02692509761332" stroke-opacity="0.8" stroke-linecap="round" stroke-linejoin="round" stroke-miterlimit="10" stroke-width="2"/><path fill="none" stroke="rgb(0,0,0)" paint-order="fill stroke markers" d=" M 265.3142894408287 86.02692509761332 L 333.84938478659524 204.73319233805825" stroke-opacity="0.8" stroke-linecap="round" stroke-linejoin="round" stroke-miterlimit="10" stroke-width="2"/><path fill="none" stroke="rgb(0,0,0)" paint-order="fill stroke markers" d=" M 333.84938478659524 204.73319233805825 L 452.5556520270402 273.26828768382484" stroke-opacity="0.8" stroke-linecap="round" stroke-linejoin="round" stroke-miterlimit="10" stroke-width="2"/><path fill="none" stroke="rgb(0,0,0)" paint-order="fill stroke markers" d=" M 333.84938478659524 204.73319233805825 L 402.3844801323618 86.02692509761332" stroke-opacity="0.8" stroke-linecap="round" stroke-linejoin="round" stroke-miterlimit="10" stroke-width="2"/><path fill="none" stroke="rgb(0,0,0)" paint-order="fill stroke markers" d=" M 402.3844801323618 86.02692509761332 L 521.0907473728067 154.56202044337988" stroke-opacity="0.8" stroke-linecap="round" stroke-linejoin="round" stroke-miterlimit="10" stroke-width="2"/><path fill="none" stroke="rgb(0,0,0)" paint-order="fill stroke markers" d=" M 333.84938478659524 204.73319233805825 L 196.77919409506217 204.73319233805825" stroke-opacity="0.8" stroke-linecap="round" stroke-linejoin="round" stroke-miterlimit="10" stroke-width="2"/><path fill="none" stroke="rgb(0,0,0)" paint-order="fill stroke markers" d=" M 196.77919409506217 204.73319233805825 L 265.3142894408287 86.02692509761332" stroke-opacity="0.8" stroke-linecap="round" stroke-linejoin="round" stroke-miterlimit="10" stroke-width="2"/><path fill="none" stroke="rgb(0,0,0)" paint-order="fill stroke markers" d=" M 196.77919409506217 204.73319233805825 L 196.77919409506217 341.8033830295913" stroke-opacity="0.8" stroke-linecap="round" stroke-linejoin="round" stroke-miterlimit="10" stroke-width="2"/><path fill="none" stroke="rgb(0,0,0)" paint-order="fill stroke markers" d=" M 333.8493847865953 341.8033830295913 L 333.84938478659524 204.73319233805825" stroke-opacity="0.8" stroke-linecap="round" stroke-linejoin="round" stroke-miterlimit="10" stroke-width="2"/><path fill="none" stroke="rgb(255,85,0)" paint-order="fill stroke markers" d=" M 461.73761375258425 563.3122932886861 L 373.4181405334102 410.3384783753579" stroke-opacity="0.8" stroke-linecap="round" stroke-linejoin="round" stroke-miterlimit="10" stroke-width="2.5"/><path fill="none" stroke="rgb(255,85,0)" paint-order="fill stroke markers" d=" M 373.4181405334102 410.3384783753579 L 196.77919409506217 410.33847837535785" stroke-opacity="0.8" stroke-linecap="round" stroke-linejoin="round" stroke-miterlimit="10" stroke-width="2.5"/><path fill="none" stroke="rgb(255,85,0)" paint-order="fill stroke markers" d=" M 373.4181405334102 410.3384783753579 L 412.9868962802252 341.8033830295913" stroke-opacity="0.8" stroke-linecap="round" stroke-linejoin="round" stroke-miterlimit="10" stroke-width="2.5"/><path fill="none" stroke="rgb(255,85,0)" paint-order="fill stroke markers" d=" M 412.9868962802252 341.8033830295913 L 629.1945984653883 341.8033830295913" stroke-opacity="0.8" stroke-linecap="round" stroke-linejoin="round" stroke-miterlimit="10" stroke-width="2.5"/><path fill="none" stroke="rgb(255,85,0)" paint-order="fill stroke markers" d=" M 412.9868962802252 341.8033830295913 L 373.4181405334102 273.2682876838248" stroke-opacity="0.8" stroke-linecap="round" stroke-linejoin="round" stroke-miterlimit="10" stroke-width="2.5"/><path fill="none" stroke="rgb(255,85,0)" paint-order="fill stroke markers" d=" M 373.4181405334102 273.2682876838248 L 196.77919409506217 273.2682876838248" stroke-opacity="0.8" stroke-linecap="round" stroke-linejoin="round" stroke-miterlimit="10" stroke-width="2.5"/><path fill="none" stroke="rgb(255,85,0)" paint-order="fill stroke markers" d=" M 373.4181405334102 273.2682876838248 L 481.52199162599175 86.02692509761337" stroke-opacity="0.8" stroke-linecap="round" stroke-linejoin="round" stroke-miterlimit="10" stroke-width="2.5"/><path fill="none" stroke="rgb(255,85,0)" paint-order="fill stroke markers" d=" M 481.52199162599175 86.02692509761337 L 461.73761375258425 51.759377424730076" stroke-opacity="0.8" stroke-linecap="round" stroke-linejoin="round" stroke-miterlimit="10" stroke-width="2.5"/><path fill="none" stroke="rgb(255,85,0)" paint-order="fill stroke markers" d=" M 481.52199162599175 86.02692509761337 L 560.6595031196217 86.02692509761337" stroke-opacity="0.8" stroke-linecap="round" stroke-linejoin="round" stroke-miterlimit="10" stroke-width="2.5"/><path fill="none" stroke="rgb(255,85,0)" paint-order="fill stroke markers" d=" M 560.6595031196217 86.02692509761337 L 580.4438809930292 51.759377424730076" stroke-opacity="0.8" stroke-linecap="round" stroke-linejoin="round" stroke-miterlimit="10" stroke-width="2.5"/><path fill="none" stroke="rgb(255,85,0)" paint-order="fill stroke markers" d=" M 560.6595031196217 86.02692509761337 L 668.7633542122032 273.2682876838248" stroke-opacity="0.8" stroke-linecap="round" stroke-linejoin="round" stroke-miterlimit="10" stroke-width="2.5"/><path fill="none" stroke="rgb(255,85,0)" paint-order="fill stroke markers" d=" M 668.7633542122032 273.2682876838248 L 629.1945984653883 341.8033830295913" stroke-opacity="0.8" stroke-linecap="round" stroke-linejoin="round" stroke-miterlimit="10" stroke-width="2.5"/><path fill="none" stroke="rgb(255,85,0)" paint-order="fill stroke markers" d=" M 629.1945984653883 341.8033830295913 L 668.7633542122032 410.3384783753579" stroke-opacity="0.8" stroke-linecap="round" stroke-linejoin="round" stroke-miterlimit="10" stroke-width="2.5"/><path fill="none" stroke="rgb(255,85,0)" paint-order="fill stroke markers" d=" M 668.7633542122032 410.3384783753579 L 580.4438809930292 563.3122932886861" stroke-opacity="0.8" stroke-linecap="round" stroke-linejoin="round" stroke-miterlimit="10" stroke-width="2.5"/><path fill="none" stroke="rgb(255,85,0)" paint-order="fill stroke markers" d=" M 668.7633542122032 410.3384783753579 L 708.3321099590182 410.33847837535785" stroke-opacity="0.8" stroke-linecap="round" stroke-linejoin="round" stroke-miterlimit="10" stroke-width="2.5"/><path fill="none" stroke="rgb(255,85,0)" paint-order="fill stroke markers" d=" M 668.7633542122032 273.2682876838248 L 708.3321099590182 273.2682876838248" stroke-opacity="0.8" stroke-linecap="round" stroke-linejoin="round" stroke-miterlimit="10" stroke-width="2.5"/><path fill="rgb(0,0,0)" stroke="none" paint-order="stroke fill markers" d=" M 672.7633542122032 273.2682876838248 C 672.7633542122032 275.47742668314794 670.9724932115264 277.2682876838248 668.7633542122032 277.2682876838248 C 666.5542152128801 277.2682876838248 664.7633542122032 275.47742668314794 664.7633542122032 273.2682876838248 C 664.7633542122032 271.0591486845016 666.5542152128801 269.2682876838248 668.7633542122032 269.2682876838248 C 670.9724932115264 269.2682876838248 672.7633542122032 271.0591486845016 672.7633542122032 273.2682876838248 Z" fill-opacity="1"/><path fill="none" stroke="rgb(0,0,0)" paint-order="fill stroke markers" d=" M 672.7633542122032 273.2682876838248 C 672.7633542122032 275.47742668314794 670.9724932115264 277.2682876838248 668.7633542122032 277.2682876838248 C 666.5542152128801 277.2682876838248 664.7633542122032 275.47742668314794 664.7633542122032 273.2682876838248 C 664.7633542122032 271.0591486845016 666.5542152128801 269.2682876838248 668.7633542122032 269.2682876838248 C 670.9724932115264 269.2682876838248 672.7633542122032 271.0591486845016 672.7633542122032 273.2682876838248 Z" stroke-opacity="1" stroke-linecap="round" stroke-linejoin="round" stroke-miterlimit="10"/><path fill="rgb(0,0,0)" stroke="none" paint-order="stroke fill markers" d=" M 564.6595031196217 86.02692509761337 C 564.6595031196217 88.23606409693654 562.8686421189449 90.02692509761337 560.6595031196217 90.02692509761337 C 558.4503641202986 90.02692509761337 556.6595031196217 88.23606409693654 556.6595031196217 86.02692509761337 C 556.6595031196217 83.8177860982902 558.4503641202986 82.02692509761337 560.6595031196217 82.02692509761337 C 562.8686421189449 82.02692509761337 564.6595031196217 83.8177860982902 564.6595031196217 86.02692509761337 Z" fill-opacity="1"/><path fill="none" stroke="rgb(0,0,0)" paint-order="fill stroke markers" d=" M 564.6595031196217 86.02692509761337 C 564.6595031196217 88.23606409693654 562.8686421189449 90.02692509761337 560.6595031196217 90.02692509761337 C 558.4503641202986 90.02692509761337 556.6595031196217 88.23606409693654 556.6595031196217 86.02692509761337 C 556.6595031196217 83.8177860982902 558.4503641202986 82.02692509761337 560.6595031196217 82.02692509761337 C 562.8686421189449 82.02692509761337 564.6595031196217 83.8177860982902 564.6595031196217 86.02692509761337 Z" stroke-opacity="1" stroke-linecap="round" stroke-linejoin="round" stroke-miterlimit="10"/><path fill="rgb(0,0,0)" stroke="none" paint-order="stroke fill markers" d=" M 485.52199162599175 86.02692509761337 C 485.52199162599175 88.23606409693654 483.7311306253149 90.02692509761337 481.52199162599175 90.02692509761337 C 479.3128526266686 90.02692509761337 477.52199162599175 88.23606409693654 477.52199162599175 86.02692509761337 C 477.52199162599175 83.8177860982902 479.3128526266686 82.02692509761337 481.52199162599175 82.02692509761337 C 483.7311306253149 82.02692509761337 485.52199162599175 83.8177860982902 485.52199162599175 86.02692509761337 Z" fill-opacity="1"/><path fill="none" stroke="rgb(0,0,0)" paint-order="fill stroke markers" d=" M 485.52199162599175 86.02692509761337 C 485.52199162599175 88.23606409693654 483.7311306253149 90.02692509761337 481.52199162599175 90.02692509761337 C 479.3128526266686 90.02692509761337 477.52199162599175 88.23606409693654 477.52199162599175 86.02692509761337 C 477.52199162599175 83.8177860982902 479.3128526266686 82.02692509761337 481.52199162599175 82.02692509761337 C 483.7311306253149 82.02692509761337 485.52199162599175 83.8177860982902 485.52199162599175 86.02692509761337 Z" stroke-opacity="1" stroke-linecap="round" stroke-linejoin="round" stroke-miterlimit="10"/><path fill="rgb(0,0,0)" stroke="none" paint-order="stroke fill markers" d=" M 377.4181405334102 273.2682876838248 C 377.4181405334102 275.47742668314794 375.6272795327334 277.2682876838248 373.4181405334102 277.2682876838248 C 371.20900153408707 277.2682876838248 369.4181405334102 275.47742668314794 369.4181405334102 273.2682876838248 C 369.4181405334102 271.0591486845016 371.20900153408707 269.2682876838248 373.4181405334102 269.2682876838248 C 375.6272795327334 269.2682876838248 377.4181405334102 271.0591486845016 377.4181405334102 273.2682876838248 Z" fill-opacity="1"/><path fill="none" stroke="rgb(0,0,0)" paint-order="fill stroke markers" d=" M 377.4181405334102 273.2682876838248 C 377.4181405334102 275.47742668314794 375.6272795327334 277.2682876838248 373.4181405334102 277.2682876838248 C 371.20900153408707 277.2682876838248 369.4181405334102 275.47742668314794 369.4181405334102 273.2682876838248 C 369.4181405334102 271.0591486845016 371.20900153408707 269.2682876838248 373.4181405334102 269.2682876838248 C 375.6272795327334 269.2682876838248 377.4181405334102 271.0591486845016 377.4181405334102 273.2682876838248 Z" stroke-opacity="1" stroke-linecap="round" stroke-linejoin="round" stroke-miterlimit="10"/><path fill="rgb(0,0,0)" stroke="none" paint-order="stroke fill markers" d=" M 416.9868962802252 341.8033830295913 C 416.9868962802252 344.0125220289145 415.19603527954837 345.8033830295913 412.9868962802252 345.8033830295913 C 410.77775728090205 345.8033830295913 408.9868962802252 344.0125220289145 408.9868962802252 341.8033830295913 C 408.9868962802252 339.59424403026816 410.77775728090205 337.8033830295913 412.9868962802252 337.8033830295913 C 415.19603527954837 337.8033830295913 416.9868962802252 339.59424403026816 416.9868962802252 341.8033830295913 Z" fill-opacity="1"/><path fill="none" stroke="rgb(0,0,0)" paint-order="fill stroke markers" d=" M 416.9868962802252 341.8033830295913 C 416.9868962802252 344.0125220289145 415.19603527954837 345.8033830295913 412.9868962802252 345.8033830295913 C 410.77775728090205 345.8033830295913 408.9868962802252 344.0125220289145 408.9868962802252 341.8033830295913 C 408.9868962802252 339.59424403026816 410.77775728090205 337.8033830295913 412.9868962802252 337.8033830295913 C 415.19603527954837 337.8033830295913 416.9868962802252 339.59424403026816 416.9868962802252 341.8033830295913 Z" stroke-opacity="1" stroke-linecap="round" stroke-linejoin="round" stroke-miterlimit="10"/><path fill="rgb(0,0,0)" stroke="none" paint-order="stroke fill markers" d=" M 377.4181405334102 410.3384783753579 C 377.4181405334102 412.54761737468107 375.6272795327334 414.3384783753579 373.4181405334102 414.3384783753579 C 371.20900153408707 414.3384783753579 369.4181405334102 412.54761737468107 369.4181405334102 410.3384783753579 C 369.4181405334102 408.12933937603475 371.20900153408707 406.3384783753579 373.4181405334102 406.3384783753579 C 375.6272795327334 406.3384783753579 377.4181405334102 408.12933937603475 377.4181405334102 410.3384783753579 Z" fill-opacity="1"/><path fill="none" stroke="rgb(0,0,0)" paint-order="fill stroke markers" d=" M 377.4181405334102 410.3384783753579 C 377.4181405334102 412.54761737468107 375.6272795327334 414.3384783753579 373.4181405334102 414.3384783753579 C 371.20900153408707 414.3384783753579 369.4181405334102 412.54761737468107 369.4181405334102 410.3384783753579 C 369.4181405334102 408.12933937603475 371.20900153408707 406.3384783753579 373.4181405334102 406.3384783753579 C 375.6272795327334 406.3384783753579 377.4181405334102 408.12933937603475 377.4181405334102 410.3384783753579 Z" stroke-opacity="1" stroke-linecap="round" stroke-linejoin="round" stroke-miterlimit="10"/><path fill="rgb(0,0,0)" stroke="none" paint-order="stroke fill markers" d=" M 633.1945984653883 341.8033830295913 C 633.1945984653883 344.0125220289145 631.4037374647114 345.8033830295913 629.1945984653883 345.8033830295913 C 626.9854594660651 345.8033830295913 625.1945984653883 344.0125220289145 625.1945984653883 341.8033830295913 C 625.1945984653883 339.59424403026816 626.9854594660651 337.8033830295913 629.1945984653883 337.8033830295913 C 631.4037374647114 337.8033830295913 633.1945984653883 339.59424403026816 633.1945984653883 341.8033830295913 Z" fill-opacity="1"/><path fill="none" stroke="rgb(0,0,0)" paint-order="fill stroke markers" d=" M 633.1945984653883 341.8033830295913 C 633.1945984653883 344.0125220289145 631.4037374647114 345.8033830295913 629.1945984653883 345.8033830295913 C 626.9854594660651 345.8033830295913 625.1945984653883 344.0125220289145 625.1945984653883 341.8033830295913 C 625.1945984653883 339.59424403026816 626.9854594660651 337.8033830295913 629.1945984653883 337.8033830295913 C 631.4037374647114 337.8033830295913 633.1945984653883 339.59424403026816 633.1945984653883 341.8033830295913 Z" stroke-opacity="1" stroke-linecap="round" stroke-linejoin="round" stroke-miterlimit="10"/><path fill="rgb(0,0,0)" stroke="none" paint-order="stroke fill markers" d=" M 672.7633542122032 410.3384783753579 C 672.7633542122032 412.54761737468107 670.9724932115264 414.3384783753579 668.7633542122032 414.3384783753579 C 666.5542152128801 414.3384783753579 664.7633542122032 412.54761737468107 664.7633542122032 410.3384783753579 C 664.7633542122032 408.12933937603475 666.5542152128801 406.3384783753579 668.7633542122032 406.3384783753579 C 670.9724932115264 406.3384783753579 672.7633542122032 408.12933937603475 672.7633542122032 410.3384783753579 Z" fill-opacity="1"/><path fill="none" stroke="rgb(0,0,0)" paint-order="fill stroke markers" d=" M 672.7633542122032 410.3384783753579 C 672.7633542122032 412.54761737468107 670.9724932115264 414.3384783753579 668.7633542122032 414.3384783753579 C 666.5542152128801 414.3384783753579 664.7633542122032 412.54761737468107 664.7633542122032 410.3384783753579 C 664.7633542122032 408.12933937603475 666.5542152128801 406.3384783753579 668.7633542122032 406.3384783753579 C 670.9724932115264 406.3384783753579 672.7633542122032 408.12933937603475 672.7633542122032 410.3384783753579 Z" stroke-opacity="1" stroke-linecap="round" stroke-linejoin="round" stroke-miterlimit="10"/><path fill="rgb(0,0,0)" stroke="none" paint-order="stroke fill markers" d=" M 643.7970146132517 223.09711578914641 C 643.7970146132517 225.30625478846957 642.0061536125748 227.09711578914641 639.7970146132517 227.09711578914641 C 637.5878756139285 227.09711578914641 635.7970146132517 225.30625478846957 635.7970146132517 223.09711578914641 C 635.7970146132517 220.88797678982323 637.5878756139285 219.09711578914641 639.7970146132517 219.09711578914641 C 642.0061536125748 219.09711578914641 643.7970146132517 220.88797678982323 643.7970146132517 223.09711578914641 Z" fill-opacity="1"/><path fill="none" stroke="rgb(0,0,0)" paint-order="fill stroke markers" d=" M 643.7970146132517 223.09711578914641 C 643.7970146132517 225.30625478846957 642.0061536125748 227.09711578914641 639.7970146132517 227.09711578914641 C 637.5878756139285 227.09711578914641 635.7970146132517 225.30625478846957 635.7970146132517 223.09711578914641 C 635.7970146132517 220.88797678982323 637.5878756139285 219.09711578914641 639.7970146132517 219.09711578914641 C 642.0061536125748 219.09711578914641 643.7970146132517 220.88797678982323 643.7970146132517 223.09711578914641 Z" stroke-opacity="1" stroke-linecap="round" stroke-linejoin="round" stroke-miterlimit="10"/><path fill="rgb(0,0,0)" stroke="none" paint-order="stroke fill markers" d=" M 593.6258427185733 136.19809699229177 C 593.6258427185733 138.40723599161493 591.8349817178964 140.19809699229177 589.6258427185733 140.19809699229177 C 587.4167037192501 140.19809699229177 585.6258427185733 138.40723599161493 585.6258427185733 136.19809699229177 C 585.6258427185733 133.98895799296858 587.4167037192501 132.19809699229177 589.6258427185733 132.19809699229177 C 591.8349817178964 132.19809699229177 593.6258427185733 133.98895799296858 593.6258427185733 136.19809699229177 Z" fill-opacity="1"/><path fill="none" stroke="rgb(0,0,0)" paint-order="fill stroke markers" d=" M 593.6258427185733 136.19809699229177 C 593.6258427185733 138.40723599161493 591.8349817178964 140.19809699229177 589.6258427185733 140.19809699229177 C 587.4167037192501 140.19809699229177 585.6258427185733 138.40723599161493 585.6258427185733 136.19809699229177 C 585.6258427185733 133.98895799296858 587.4167037192501 132.19809699229177 589.6258427185733 132.19809699229177 C 591.8349817178964 132.19809699229177 593.6258427185733 133.98895799296858 593.6258427185733 136.19809699229177 Z" stroke-opacity="1" stroke-linecap="round" stroke-linejoin="round" stroke-miterlimit="10"/><path fill="rgb(0,0,0)" stroke="none" paint-order="stroke fill markers" d=" M 406.38448013236183 223.09711578914636 C 406.38448013236183 225.30625478846952 404.593619131685 227.09711578914636 402.38448013236183 227.09711578914636 C 400.17534113303867 227.09711578914636 398.38448013236183 225.30625478846952 398.38448013236183 223.09711578914636 C 398.38448013236183 220.88797678982317 400.17534113303867 219.09711578914636 402.38448013236183 219.09711578914636 C 404.593619131685 219.09711578914636 406.38448013236183 220.88797678982317 406.38448013236183 223.09711578914636 Z" fill-opacity="1"/><path fill="none" stroke="rgb(0,0,0)" paint-order="fill stroke markers" d=" M 406.38448013236183 223.09711578914636 C 406.38448013236183 225.30625478846952 404.593619131685 227.09711578914636 402.38448013236183 227.09711578914636 C 400.17534113303867 227.09711578914636 398.38448013236183 225.30625478846952 398.38448013236183 223.09711578914636 C 398.38448013236183 220.88797678982317 400.17534113303867 219.09711578914636 402.38448013236183 219.09711578914636 C 404.593619131685 219.09711578914636 406.38448013236183 220.88797678982317 406.38448013236183 223.09711578914636 Z" stroke-opacity="1" stroke-linecap="round" stroke-linejoin="round" stroke-miterlimit="10"/><path fill="rgb(0,0,0)" stroke="none" paint-order="stroke fill markers" d=" M 456.5556520270402 136.1980969922917 C 456.5556520270402 138.40723599161487 454.76479102636335 140.1980969922917 452.5556520270402 140.1980969922917 C 450.34651302771704 140.1980969922917 448.5556520270402 138.40723599161487 448.5556520270402 136.1980969922917 C 448.5556520270402 133.98895799296852 450.34651302771704 132.1980969922917 452.5556520270402 132.1980969922917 C 454.76479102636335 132.1980969922917 456.5556520270402 133.98895799296852 456.5556520270402 136.1980969922917 Z" fill-opacity="1"/><path fill="none" stroke="rgb(0,0,0)" paint-order="fill stroke markers" d=" M 456.5556520270402 136.1980969922917 C 456.5556520270402 138.40723599161487 454.76479102636335 140.1980969922917 452.5556520270402 140.1980969922917 C 450.34651302771704 140.1980969922917 448.5556520270402 138.40723599161487 448.5556520270402 136.1980969922917 C 448.5556520270402 133.98895799296852 450.34651302771704 132.1980969922917 452.5556520270402 132.1980969922917 C 454.76479102636335 132.1980969922917 456.5556520270402 133.98895799296852 456.5556520270402 136.1980969922917 Z" stroke-opacity="1" stroke-linecap="round" stroke-linejoin="round" stroke-miterlimit="10"/><path fill="rgb(0,0,0)" stroke="none" paint-order="stroke fill markers" d=" M 456.55565202704014 547.408669066891 C 456.55565202704014 549.6178080662141 454.7647910263633 551.408669066891 452.55565202704014 551.408669066891 C 450.346513027717 551.408669066891 448.55565202704014 549.6178080662141 448.55565202704014 547.408669066891 C 448.55565202704014 545.1995300675678 450.346513027717 543.408669066891 452.55565202704014 543.408669066891 C 454.7647910263633 543.408669066891 456.55565202704014 545.1995300675678 456.55565202704014 547.408669066891 Z" fill-opacity="1"/><path fill="none" stroke="rgb(0,0,0)" paint-order="fill stroke markers" d=" M 456.55565202704014 547.408669066891 C 456.55565202704014 549.6178080662141 454.7647910263633 551.408669066891 452.55565202704014 551.408669066891 C 450.346513027717 551.408669066891 448.55565202704014 549.6178080662141 448.55565202704014 547.408669066891 C 448.55565202704014 545.1995300675678 450.346513027717 543.408669066891 452.55565202704014 543.408669066891 C 454.7647910263633 543.408669066891 456.55565202704014 545.1995300675678 456.55565202704014 547.408669066891 Z" stroke-opacity="1" stroke-linecap="round" stroke-linejoin="round" stroke-miterlimit="10"/><path fill="rgb(0,0,0)" stroke="none" paint-order="stroke fill markers" d=" M 406.3844801323618 460.5096502700363 C 406.3844801323618 462.71878926935943 404.59361913168493 464.5096502700363 402.3844801323618 464.5096502700363 C 400.1753411330386 464.5096502700363 398.3844801323618 462.71878926935943 398.3844801323618 460.5096502700363 C 398.3844801323618 458.3005112707131 400.1753411330386 456.5096502700363 402.3844801323618 456.5096502700363 C 404.59361913168493 456.5096502700363 406.3844801323618 458.3005112707131 406.3844801323618 460.5096502700363 Z" fill-opacity="1"/><path fill="none" stroke="rgb(0,0,0)" paint-order="fill stroke markers" d=" M 406.3844801323618 460.5096502700363 C 406.3844801323618 462.71878926935943 404.59361913168493 464.5096502700363 402.3844801323618 464.5096502700363 C 400.1753411330386 464.5096502700363 398.3844801323618 462.71878926935943 398.3844801323618 460.5096502700363 C 398.3844801323618 458.3005112707131 400.1753411330386 456.5096502700363 402.3844801323618 456.5096502700363 C 404.59361913168493 456.5096502700363 406.3844801323618 458.3005112707131 406.3844801323618 460.5096502700363 Z" stroke-opacity="1" stroke-linecap="round" stroke-linejoin="round" stroke-miterlimit="10"/><path fill="rgb(0,0,0)" stroke="none" paint-order="stroke fill markers" d=" M 575.2619192674852 341.8033830295913 C 575.2619192674852 344.0125220289145 573.4710582668083 345.8033830295913 571.2619192674852 345.8033830295913 C 569.052780268162 345.8033830295913 567.2619192674852 344.0125220289145 567.2619192674852 341.8033830295913 C 567.2619192674852 339.59424403026816 569.052780268162 337.8033830295913 571.2619192674852 337.8033830295913 C 573.4710582668083 337.8033830295913 575.2619192674852 339.59424403026816 575.2619192674852 341.8033830295913 Z" fill-opacity="1"/><path fill="none" stroke="rgb(0,0,0)" paint-order="fill stroke markers" d=" M 575.2619192674852 341.8033830295913 C 575.2619192674852 344.0125220289145 573.4710582668083 345.8033830295913 571.2619192674852 345.8033830295913 C 569.052780268162 345.8033830295913 567.2619192674852 344.0125220289145 567.2619192674852 341.8033830295913 C 567.2619192674852 339.59424403026816 569.052780268162 337.8033830295913 571.2619192674852 337.8033830295913 C 573.4710582668083 337.8033830295913 575.2619192674852 339.59424403026816 575.2619192674852 341.8033830295913 Z" stroke-opacity="1" stroke-linecap="round" stroke-linejoin="round" stroke-miterlimit="10"/><path fill="rgb(0,0,0)" stroke="none" paint-order="stroke fill markers" d=" M 474.91957547812837 341.8033830295913 C 474.91957547812837 344.0125220289145 473.1287144774515 345.8033830295913 470.91957547812837 345.8033830295913 C 468.7104364788052 345.8033830295913 466.91957547812837 344.0125220289145 466.91957547812837 341.8033830295913 C 466.91957547812837 339.59424403026816 468.7104364788052 337.8033830295913 470.91957547812837 337.8033830295913 C 473.1287144774515 337.8033830295913 474.91957547812837 339.59424403026816 474.91957547812837 341.8033830295913 Z" fill-opacity="1"/><path fill="none" stroke="rgb(0,0,0)" paint-order="fill stroke markers" d=" M 474.91957547812837 341.8033830295913 C 474.91957547812837 344.0125220289145 473.1287144774515 345.8033830295913 470.91957547812837 345.8033830295913 C 468.7104364788052 345.8033830295913 466.91957547812837 344.0125220289145 466.91957547812837 341.8033830295913 C 466.91957547812837 339.59424403026816 468.7104364788052 337.8033830295913 470.91957547812837 337.8033830295913 C 473.1287144774515 337.8033830295913 474.91957547812837 339.59424403026816 474.91957547812837 341.8033830295913 Z" stroke-opacity="1" stroke-linecap="round" stroke-linejoin="round" stroke-miterlimit="10"/><path fill="rgb(0,0,0)" stroke="none" paint-order="stroke fill markers" d=" M 319.4854613355071 410.33847837535785 C 319.4854613355071 412.547617374681 317.6946003348303 414.33847837535785 315.4854613355071 414.33847837535785 C 313.27632233618397 414.33847837535785 311.4854613355071 412.547617374681 311.4854613355071 410.33847837535785 C 311.4854613355071 408.1293393760347 313.27632233618397 406.33847837535785 315.4854613355071 406.33847837535785 C 317.6946003348303 406.33847837535785 319.4854613355071 408.1293393760347 319.4854613355071 410.33847837535785 Z" fill-opacity="1"/><path fill="none" stroke="rgb(0,0,0)" paint-order="fill stroke markers" d=" M 319.4854613355071 410.33847837535785 C 319.4854613355071 412.547617374681 317.6946003348303 414.33847837535785 315.4854613355071 414.33847837535785 C 313.27632233618397 414.33847837535785 311.4854613355071 412.547617374681 311.4854613355071 410.33847837535785 C 311.4854613355071 408.1293393760347 313.27632233618397 406.33847837535785 315.4854613355071 406.33847837535785 C 317.6946003348303 406.33847837535785 319.4854613355071 408.1293393760347 319.4854613355071 410.33847837535785 Z" stroke-opacity="1" stroke-linecap="round" stroke-linejoin="round" stroke-miterlimit="10"/><path fill="rgb(0,0,0)" stroke="none" paint-order="stroke fill markers" d=" M 219.14311754615028 410.33847837535785 C 219.14311754615028 412.547617374681 217.35225654547344 414.33847837535785 215.14311754615028 414.33847837535785 C 212.9339785468271 414.33847837535785 211.14311754615028 412.547617374681 211.14311754615028 410.33847837535785 C 211.14311754615028 408.1293393760347 212.9339785468271 406.33847837535785 215.14311754615028 406.33847837535785 C 217.35225654547344 406.33847837535785 219.14311754615028 408.1293393760347 219.14311754615028 410.33847837535785 Z" fill-opacity="1"/><path fill="none" stroke="rgb(0,0,0)" paint-order="fill stroke markers" d=" M 219.14311754615028 410.33847837535785 C 219.14311754615028 412.547617374681 217.35225654547344 414.33847837535785 215.14311754615028 414.33847837535785 C 212.9339785468271 414.33847837535785 211.14311754615028 412.547617374681 211.14311754615028 410.33847837535785 C 211.14311754615028 408.1293393760347 212.9339785468271 406.33847837535785 215.14311754615028 406.33847837535785 C 217.35225654547344 406.33847837535785 219.14311754615028 408.1293393760347 219.14311754615028 410.33847837535785 Z" stroke-opacity="1" stroke-linecap="round" stroke-linejoin="round" stroke-miterlimit="10"/><path fill="rgb(0,0,0)" stroke="none" paint-order="stroke fill markers" d=" M 319.4854613355071 273.2682876838248 C 319.4854613355071 275.47742668314794 317.6946003348303 277.2682876838248 315.4854613355071 277.2682876838248 C 313.27632233618397 277.2682876838248 311.4854613355071 275.47742668314794 311.4854613355071 273.2682876838248 C 311.4854613355071 271.0591486845016 313.27632233618397 269.2682876838248 315.4854613355071 269.2682876838248 C 317.6946003348303 269.2682876838248 319.4854613355071 271.0591486845016 319.4854613355071 273.2682876838248 Z" fill-opacity="1"/><path fill="none" stroke="rgb(0,0,0)" paint-order="fill stroke markers" d=" M 319.4854613355071 273.2682876838248 C 319.4854613355071 275.47742668314794 317.6946003348303 277.2682876838248 315.4854613355071 277.2682876838248 C 313.27632233618397 277.2682876838248 311.4854613355071 275.47742668314794 311.4854613355071 273.2682876838248 C 311.4854613355071 271.0591486845016 313.27632233618397 269.2682876838248 315.4854613355071 269.2682876838248 C 317.6946003348303 269.2682876838248 319.4854613355071 271.0591486845016 319.4854613355071 273.2682876838248 Z" stroke-opacity="1" stroke-linecap="round" stroke-linejoin="round" stroke-miterlimit="10"/><path fill="rgb(0,0,0)" stroke="none" paint-order="stroke fill markers" d=" M 219.1431175461504 273.2682876838248 C 219.1431175461504 275.47742668314794 217.35225654547355 277.2682876838248 215.1431175461504 277.2682876838248 C 212.9339785468272 277.2682876838248 211.1431175461504 275.47742668314794 211.1431175461504 273.2682876838248 C 211.1431175461504 271.0591486845016 212.9339785468272 269.2682876838248 215.1431175461504 269.2682876838248 C 217.35225654547355 269.2682876838248 219.1431175461504 271.0591486845016 219.1431175461504 273.2682876838248 Z" fill-opacity="1"/><path fill="none" stroke="rgb(0,0,0)" paint-order="fill stroke markers" d=" M 219.1431175461504 273.2682876838248 C 219.1431175461504 275.47742668314794 217.35225654547355 277.2682876838248 215.1431175461504 277.2682876838248 C 212.9339785468272 277.2682876838248 211.1431175461504 275.47742668314794 211.1431175461504 273.2682876838248 C 211.1431175461504 271.0591486845016 212.9339785468272 269.2682876838248 215.1431175461504 269.2682876838248 C 217.35225654547355 269.2682876838248 219.1431175461504 271.0591486845016 219.1431175461504 273.2682876838248 Z" stroke-opacity="1" stroke-linecap="round" stroke-linejoin="round" stroke-miterlimit="10"/><path fill="rgb(0,0,0)" stroke="none" paint-order="stroke fill markers" d=" M 593.6258427185733 547.408669066891 C 593.6258427185733 549.6178080662141 591.8349817178964 551.408669066891 589.6258427185733 551.408669066891 C 587.4167037192501 551.408669066891 585.6258427185733 549.6178080662141 585.6258427185733 547.408669066891 C 585.6258427185733 545.1995300675678 587.4167037192501 543.408669066891 589.6258427185733 543.408669066891 C 591.8349817178964 543.408669066891 593.6258427185733 545.1995300675678 593.6258427185733 547.408669066891 Z" fill-opacity="1"/><path fill="none" stroke="rgb(0,0,0)" paint-order="fill stroke markers" d=" M 593.6258427185733 547.408669066891 C 593.6258427185733 549.6178080662141 591.8349817178964 551.408669066891 589.6258427185733 551.408669066891 C 587.4167037192501 551.408669066891 585.6258427185733 549.6178080662141 585.6258427185733 547.408669066891 C 585.6258427185733 545.1995300675678 587.4167037192501 543.408669066891 589.6258427185733 543.408669066891 C 591.8349817178964 543.408669066891 593.6258427185733 545.1995300675678 593.6258427185733 547.408669066891 Z" stroke-opacity="1" stroke-linecap="round" stroke-linejoin="round" stroke-miterlimit="10"/><path fill="rgb(0,0,0)" stroke="none" paint-order="stroke fill markers" d=" M 643.7970146132517 460.5096502700363 C 643.7970146132517 462.71878926935943 642.0061536125748 464.5096502700363 639.7970146132517 464.5096502700363 C 637.5878756139285 464.5096502700363 635.7970146132517 462.71878926935943 635.7970146132517 460.5096502700363 C 635.7970146132517 458.3005112707131 637.5878756139285 456.5096502700363 639.7970146132517 456.5096502700363 C 642.0061536125748 456.5096502700363 643.7970146132517 458.3005112707131 643.7970146132517 460.5096502700363 Z" fill-opacity="1"/><path fill="none" stroke="rgb(0,0,0)" paint-order="fill stroke markers" d=" M 643.7970146132517 460.5096502700363 C 643.7970146132517 462.71878926935943 642.0061536125748 464.5096502700363 639.7970146132517 464.5096502700363 C 637.5878756139285 464.5096502700363 635.7970146132517 462.71878926935943 635.7970146132517 460.5096502700363 C 635.7970146132517 458.3005112707131 637.5878756139285 456.5096502700363 639.7970146132517 456.5096502700363 C 642.0061536125748 456.5096502700363 643.7970146132517 458.3005112707131 643.7970146132517 460.5096502700363 Z" stroke-opacity="1" stroke-linecap="round" stroke-linejoin="round" stroke-miterlimit="10"/><path fill="none" stroke="rgb(102,255,0)" paint-order="fill stroke markers" d=" M 231.0467417679455 145.3800587178358 L 265.31428944082876 165.16443659124326" stroke-opacity="0.8" stroke-linecap="round" stroke-linejoin="round" stroke-miterlimit="10" stroke-width="2.5"/><path fill="none" stroke="rgb(102,255,0)" paint-order="fill stroke markers" d=" M 265.31428944082876 165.16443659124326 L 333.84938478659524 125.59568084442827" stroke-opacity="0.8" stroke-linecap="round" stroke-linejoin="round" stroke-miterlimit="10" stroke-width="2.5"/><path fill="none" stroke="rgb(102,255,0)" paint-order="fill stroke markers" d=" M 333.84938478659524 125.59568084442827 L 333.84938478659524 86.02692509761332" stroke-opacity="0.8" stroke-linecap="round" stroke-linejoin="round" stroke-miterlimit="10" stroke-width="2.5"/><path fill="none" stroke="rgb(102,255,0)" paint-order="fill stroke markers" d=" M 333.84938478659524 125.59568084442827 L 521.0907473728067 233.69953193700985" stroke-opacity="0.8" stroke-linecap="round" stroke-linejoin="round" stroke-miterlimit="10" stroke-width="2.5"/><path fill="none" stroke="rgb(102,255,0)" paint-order="fill stroke markers" d=" M 521.0907473728067 233.69953193700985 L 708.3321099590182 125.59568084442827" stroke-opacity="0.8" stroke-linecap="round" stroke-linejoin="round" stroke-miterlimit="10" stroke-width="2.5"/><path fill="none" stroke="rgb(102,255,0)" paint-order="fill stroke markers" d=" M 708.3321099590182 125.59568084442827 L 708.3321099590182 86.02692509761332" stroke-opacity="0.8" stroke-linecap="round" stroke-linejoin="round" stroke-miterlimit="10" stroke-width="2.5"/><path fill="none" stroke="rgb(102,255,0)" paint-order="fill stroke markers" d=" M 708.3321099590182 125.59568084442827 L 742.5996576319014 145.3800587178358" stroke-opacity="0.8" stroke-linecap="round" stroke-linejoin="round" stroke-miterlimit="10" stroke-width="2.5"/><path fill="none" stroke="rgb(102,255,0)" paint-order="fill stroke markers" d=" M 521.0907473728067 233.69953193700985 L 521.0907473728067 449.90723412217284" stroke-opacity="0.8" stroke-linecap="round" stroke-linejoin="round" stroke-miterlimit="10" stroke-width="2.5"/><path fill="none" stroke="rgb(102,255,0)" paint-order="fill stroke markers" d=" M 521.0907473728067 449.90723412217284 L 708.3321099590182 558.0110852147543" stroke-opacity="0.8" stroke-linecap="round" stroke-linejoin="round" stroke-miterlimit="10" stroke-width="2.5"/><path fill="none" stroke="rgb(102,255,0)" paint-order="fill stroke markers" d=" M 708.3321099590182 558.0110852147543 L 742.5996576319014 538.2267073413468" stroke-opacity="0.8" stroke-linecap="round" stroke-linejoin="round" stroke-miterlimit="10" stroke-width="2.5"/><path fill="none" stroke="rgb(102,255,0)" paint-order="fill stroke markers" d=" M 708.3321099590182 558.0110852147543 L 708.3321099590182 597.5798409615693" stroke-opacity="0.8" stroke-linecap="round" stroke-linejoin="round" stroke-miterlimit="10" stroke-width="2.5"/><path fill="none" stroke="rgb(102,255,0)" paint-order="fill stroke markers" d=" M 521.0907473728067 449.90723412217284 L 333.84938478659524 558.0110852147543" stroke-opacity="0.8" stroke-linecap="round" stroke-linejoin="round" stroke-miterlimit="10" stroke-width="2.5"/><path fill="none" stroke="rgb(102,255,0)" paint-order="fill stroke markers" d=" M 333.84938478659524 558.0110852147543 L 333.84938478659524 597.5798409615693" stroke-opacity="0.8" stroke-linecap="round" stroke-linejoin="round" stroke-miterlimit="10" stroke-width="2.5"/><path fill="none" stroke="rgb(102,255,0)" paint-order="fill stroke markers" d=" M 333.84938478659524 558.0110852147543 L 265.3142894408287 518.4423294679394" stroke-opacity="0.8" stroke-linecap="round" stroke-linejoin="round" stroke-miterlimit="10" stroke-width="2.5"/><path fill="none" stroke="rgb(102,255,0)" paint-order="fill stroke markers" d=" M 265.3142894408287 518.4423294679394 L 231.0467417679455 538.2267073413468" stroke-opacity="0.8" stroke-linecap="round" stroke-linejoin="round" stroke-miterlimit="10" stroke-width="2.5"/><path fill="none" stroke="rgb(102,255,0)" paint-order="fill stroke markers" d=" M 265.3142894408287 518.4423294679394 L 265.31428944082876 165.16443659124326" stroke-opacity="0.8" stroke-linecap="round" stroke-linejoin="round" stroke-miterlimit="10" stroke-width="2.5"/></g></g></svg>